PathFileType	4	(X/Y/Z)	45_2_90_p0_0-159.trc
DataRate	CameraRate	NumFrames	NumMarkers	Units	OrigDataRate	OrigDataStartFrame	OrigNumFrames
51.0	51.0	5	27	m	51.0	60	160
Frame#	Time	RHip			RKnee			RAnkle			RBigToe			RSmallToe			RHeel			LHip			LKnee			LAnkle			LBigToe			LSmallToe			LHeel			Neck			Head			Nose			RShoulder			RElbow			RWrist			RThumb			RIndex			RPinky			LShoulder			LElbow			LWrist			LThumb			LIndex			LPinky			
		X1	Y1	Z1	X2	Y2	Z2	X3	Y3	Z3	X4	Y4	Z4	X5	Y5	Z5	X6	Y6	Z6	X7	Y7	Z7	X8	Y8	Z8	X9	Y9	Z9	X10	Y10	Z10	X11	Y11	Z11	X12	Y12	Z12	X13	Y13	Z13	X14	Y14	Z14	X15	Y15	Z15	X16	Y16	Z16	X17	Y17	Z17	X18	Y18	Z18	X19	Y19	Z19	X20	Y20	Z20	X21	Y21	Z21	X22	Y22	Z22	X23	Y23	Z23	X24	Y24	Z24	X25	Y25	Z25	X26	Y26	Z26	X27	Y27	Z27	
60	1.1764705882352942	0.5736537531806638	0.45450505455978363	0.8160895512414533	0.6049473964911732	0.6869226481212765	1.256026544003271	0.6455341030531344	0.8395702067008352	1.6744161030485565	0.5985157630164694	0.7168381809117989	1.765221875071828	0.6674017630261865	0.6862564872084561	1.742288383401215	0.6366380433254525	0.8794039859824084	1.7019638305990494	0.3676037944533987	0.45461123218690525	0.8330985932343038	0.41773713932506407	0.6077350802083351	1.265350958411723	0.43770431947766253	0.85256528831638	1.6988769819889014	0.47294610622916494	0.705689006715085	1.7726783532191417	0.4024116012603758	0.7249987071951088	1.7668981645803947	0.45164322904440335	0.9297440389920173	1.7487464666029275	0.4220411031309958	0.17412439320981263	0.30013248209891275	0.41388207246602093	0.06204479237748738	0.08417305028202808	0.4258783161130391	0.029865737026329445	0.23231655400096324	0.5906058624007009	0.17007069955473814	0.3608634880286058	0.7104879035657087	0.25938920942991034	0.5617283754727078	0.6395817509441686	0.08114779219144706	0.7043125086159014	0.5510362704886116	-0.05388840786202013	0.7461848807607768	0.549889869541561	-0.07209145903463464	0.7586540174290428	0.5695103393538797	0.006016494695743809	0.7787245044225779	0.27271218428815996	0.16049489187307467	0.37246870142024435	0.21838441155702065	0.26751305957140403	0.5958675942279383	0.29808297654239624	0.0478918656486805	0.7266553037289806	0.35991924160821587	-0.0549399241430574	0.7448079956194947	0.3532102529359566	-0.09016101953954257	0.7727390028574047	0.36793979538724186	-0.0028466241224881683	0.8089575569241969
61	1.196078431372549	0.5730767437929526	0.4544554870406994	0.8122830332433205	0.6044284573536944	0.6854124630493986	1.2477493835155735	0.6455172870176876	0.8395082276703199	1.6743719858174844	0.5984679109821776	0.7166090836725175	1.7653234767411594	0.6672201729355806	0.6860620650375987	1.7425798381264512	0.6366498029138483	0.8793339098245614	1.7019512662679759	0.37173706264990997	0.4563091993010082	0.8318530239097038	0.41772068161226694	0.6079940239689543	1.2652111805046276	0.4376700911700106	0.8523290407030484	1.698929711844341	0.4728515923221361	0.70508895698636	1.7725692725276623	0.3991917517035638	0.7066594555177946	1.7597244553582474	0.45144797969340916	0.9297197685954846	1.7490292258110218	0.42241671190185526	0.17477803417801452	0.30342782185912337	0.4157730925125327	0.04210371221671994	0.09449749940410494	0.4235503197689274	0.019980004523845917	0.23589652321735702	0.5911263813153353	0.1706126625483085	0.36403649209465194	0.7105104783924597	0.2591486037333192	0.561656875263945	0.6394672261028562	0.0805421494998638	0.7045159615253467	0.5579785758365967	-0.07501057920335752	0.746904817087578	0.5517872091163778	-0.07771967566683312	0.7552940787685074	0.5695892439614473	-0.004657574111937817	0.776597630887391	0.2728351949716266	0.1601121478834914	0.37262377862078944	0.2167952678874163	0.2578146561820393	0.6008134364033313	0.29166052213911314	0.035717382170284646	0.7251647737154586	0.35349851767570917	-0.05436650772535558	0.7454521402811505	0.35309312914998686	-0.07890676525825248	0.7684962737513699	0.36660466427717175	-0.005582787369067503	0.7992457098001289
62	1.2156862745098038	0.5730145255409245	0.454468315684639	0.8122998137525416	0.6010142689777662	0.6715412542523322	1.2471042461690538	0.6410410495683215	0.8372818160219924	1.6744785009364251	0.597743398276897	0.716886947519309	1.761096474792959	0.6673336023958278	0.6860853464925667	1.7424677600168093	0.6366203323841915	0.87935815611876	1.701738124917419	0.3717334248865719	0.45633112269473664	0.8317150214372961	0.4181015745276001	0.6066741928332724	1.2613740814852736	0.4331015810590901	0.8501913648242564	1.6988807141977946	0.4728493415255471	0.705180355236245	1.7725518044906785	0.3991934430592248	0.7067535552926746	1.7597880030618316	0.45154034225870093	0.9298647927609816	1.7489567107081008	0.4224267434518764	0.17478391091686446	0.30368364945972004	0.411168554960987	0.05201317412643478	0.08844056657437907	0.4235086769920931	0.019616214999701224	0.2362057182393514	0.587466747300062	0.1693321242442011	0.36493288847036043	0.7070818196583522	0.2484521890826021	0.5636200312033414	0.6386182699866053	0.06844643602571891	0.7060251512442147	0.5548323929062616	-0.08578156564087176	0.7452848763887646	0.5523797534587522	-0.09700101935295406	0.7567240526747978	0.569672966911984	-0.005296220615476507	0.77649042318747	0.2728547566861677	0.16065708093763093	0.3761664269483822	0.21678162883872606	0.25782535905110915	0.6009235844235494	0.29407195356742233	0.04531767328072202	0.7239271344808692	0.3644161203733172	-0.039470961283080974	0.7473933158863076	0.3568400824499692	-0.08863002916726138	0.7689479781413919	0.3694750173581995	0.005069462495149995	0.801219077059192
63	1.2352941176470589	0.5682864213874086	0.46626821128854573	0.8119576643580471	0.5959140809891708	0.6660926804559759	1.247688097649305	0.645171095454862	0.8194643269853964	1.6703035487216207	0.601842397713638	0.700863878167865	1.756625179798355	0.6711044095559087	0.6712640273787879	1.7383493813687092	0.635270179113255	0.8756107541596443	1.69735429933117	0.37102755486340644	0.4540328883106156	0.8277838992275923	0.4229783762839924	0.5910503546502934	1.2594262269920464	0.4416471457311387	0.8321252854246778	1.6896395402526054	0.47294330505713866	0.7050902018050287	1.772478208082514	0.4001755425018898	0.7105812239951845	1.7638189052265063	0.4509545750830907	0.9260156067042509	1.748998693506609	0.42109776519481945	0.1511869348421797	0.3136601775818136	0.4139442864217234	0.03437048940004321	0.10438948478453057	0.42382724597192484	0.02071546103429732	0.23941914304683687	0.5879273551486635	0.1696185306481462	0.3683181136914622	0.7084731575992838	0.24976234561858776	0.5709727067954125	0.636653646027183	0.05896090321008615	0.7114950528947873	0.5544027686184169	-0.1085289037715666	0.7416250119688376	0.5537757947420193	-0.10352179533066863	0.757425314005541	0.5696562206496425	-0.01503713696254348	0.7775712977409597	0.27855428009581407	0.1521925226146997	0.38494033343850825	0.21683377065921117	0.25796981287896537	0.6009140632525457	0.2980281094283686	0.03296986682927181	0.7211530031664638	0.3551204782366338	-0.0740871920938372	0.7470159327199652	0.35054038679505006	-0.10069493375755777	0.7673821830762757	0.3601702025717924	-0.01877568106332941	0.7968949840583116
64	1.2549019607843137	0.5695402083660583	0.4666953745999429	0.8195246005133887	0.5772429986591969	0.6191576879846806	1.2461926266691894	0.6437126976102833	0.8160229456708262	1.6655410918431637	0.6016568211374504	0.7009076280531781	1.754588921160889	0.6707786577860222	0.6712701909931119	1.7334669062576389	0.6405905770322534	0.8775480123908203	1.696161578671963	0.3611759557618926	0.4805818555104319	0.8314539350137059	0.4165282421090504	0.6038615235702472	1.2604044490914685	0.44216804849958624	0.8312199678571149	1.6894528136747047	0.4680907379961631	0.6643895139928122	1.7510206456578623	0.40773638120316724	0.6719178019707848	1.745240718982872	0.45172489757205475	0.9302031008248483	1.7503703203245493	0.42369609885094095	0.1267572666480993	0.3514799824920049	0.4070354520041679	0.01247862055116645	0.14682477084717718	0.43032907836100487	-0.0048403600672394945	0.2775351999563771	0.5870089599232426	0.16215363662878868	0.3851067920312582	0.7079906013844822	0.2356831651304348	0.6105521360375535	0.6311781744149179	0.02277928687937718	0.7455592448667038	0.5606273133766951	-0.14472669459492005	0.7570184091166261	0.5650357570629894	-0.14799542491175352	0.7899368321754833	0.5643080030524932	-0.09909875495621248	0.808929832278975	0.28299473446693535	0.1616217256973477	0.4192643933140702	0.2244600733597286	0.2516315405351587	0.6268448953799463	0.3102028625525372	0.0286265686263586	0.7479670396866313	0.36614674694505	-0.09190248666955424	0.761091276166122	0.36954720944493685	-0.12464609610406802	0.786651136426164	0.3644821234104012	-0.05242441447786108	0.8207310422891283
